<?xml version="1.0" encoding="utf-8"?>
<!-- Generator: Adobe Illustrator 16.0.0, SVG Export Plug-In . SVG Version: 6.00 Build 0)  -->
<!DOCTYPE svg PUBLIC "-//W3C//DTD SVG 1.1//EN" "http://www.w3.org/Graphics/SVG/1.1/DTD/svg11.dtd">
<svg version="1.1" id="Layer_1" xmlns="http://www.w3.org/2000/svg" xmlns:xlink="http://www.w3.org/1999/xlink" x="0px" y="0px"
	 width="500px" height="500px" viewBox="0 0 500 500" enable-background="new 0 0 500 500" xml:space="preserve">
<path fill-rule="evenodd" clip-rule="evenodd" fill="#B63C5B" d="M202.725,40.774c5.405-5.866,10.75-11.791,16.282-17.536
	c0.829-0.86,2.534-0.875,3.874-1.295c0.32-1.727-0.071-2.822-2.14-3.509c-3.688-1.228-5.697-4.482-5.115-7.431
	c0.643-3.262,4.36-6.269,7.89-6.347c1.637-0.037,3.275-0.022,4.912-0.004c3.443,0.038,6.882,2.617,7.647,5.717
	c0.73,2.957-0.974,5.95-4.395,7.714c-1.948,1.003-1.948,1.003-1.688,3.154c0.106,0.06,0.24,0.197,0.324,0.172
	c3.2-0.979,5.307,0.673,7.478,2.75c3.892,3.722,8.001,7.215,12.022,10.803c-0.323,0.338-0.647,0.676-1.051,1.099
	c0.9,1.264,1.785,2.503,2.671,3.745c0.72-0.366,1.259-0.637,1.794-0.909c-0.781,1.071-1.563,2.141-2.419,3.313
	c-5.414-4.233-10.597-8.288-15.895-12.432c-0.097,0.406-0.177,0.585-0.177,0.764c0.005,14.55,3.627,28.621,5.754,43.083
	c-1.665,0.341-3.271,0.667-4.976,1.016c-1.925-8.208-3.796-16.189-5.668-24.172c-0.134,0.017-0.271,0.034-0.406,0.05
	c-0.22,8.145-0.44,16.288-0.663,24.52c-1.761,0-3.376,0-5.111,0c-1.001-14.763,0.04-29.627-3.183-44.457
	c-4.627,4.336-9.085,8.514-13.545,12.691C205.534,42.441,204.13,41.608,202.725,40.774z"/>
<path fill-rule="evenodd" clip-rule="evenodd" fill="#551F1D" d="M202.725,40.774c1.405,0.833,2.809,1.667,4.214,2.499
	c-0.743,1.42-1.486,2.843-2.27,4.339c-6.183-2.874-12.133-5.64-18.321-8.516c3.138,14.768,10.218,27.698,15.526,41.47
	c-1.502,0.699-2.954,1.373-4.614,2.145c-3.691-7.463-7.338-14.84-10.986-22.218c-0.134,0.05-0.268,0.101-0.402,0.15
	c1.629,7.915,3.258,15.829,4.935,23.977c-1.76,0.408-3.364,0.782-4.976,1.157c-4.423-14.298-6.723-28.982-13.332-42.694
	c-3.684,5.763-7.162,11.21-10.641,16.656c-2.41,1.676-3.143-1.28-4.935-1.429c0.387-0.853,0.634-1.399,0.881-1.944
	c3.747-6.471,7.465-12.958,11.279-19.39c0.452-0.762,1.342-1.447,2.181-1.768c3.619-1.379,7.271-2.683,10.967-3.84
	c0.9-0.282,2.168-0.206,2.996,0.225c5.25,2.734,10.419,5.623,15.627,8.438C201.44,40.349,202.099,40.53,202.725,40.774z"/>
<path fill-rule="evenodd" clip-rule="evenodd" fill="#551F1D" d="M346.092,442.748c-3.821,6.671-7.613,13.354-11.496,19.986
	c-0.416,0.713-1.264,1.337-2.049,1.637c-3.686,1.397-7.402,2.713-11.146,3.949c-0.746,0.247-1.806,0.295-2.463-0.053
	c-6.675-3.524-13.296-7.149-19.933-10.745c-0.655-0.587-1.31-1.176-1.964-1.763c0.692-1.21,1.383-2.423,2.071-3.627
	c6.168,2.839,12.118,5.575,18.299,8.42c-3.254-14.801-10.342-27.715-15.691-41.429c1.541-0.723,2.988-1.398,4.619-2.161
	c3.709,7.45,7.357,14.77,11.003,22.088c0.145-0.054,0.29-0.104,0.434-0.16c-1.659-7.895-3.315-15.792-5.014-23.869
	c1.817-0.419,3.424-0.789,5.014-1.153c4.381,14.315,6.856,28.902,13.42,42.656c3.791-5.953,7.401-11.619,11.012-17.286
	c1.513,0.618,3.025,1.238,4.573,1.869C346.444,441.91,346.267,442.33,346.092,442.748z"/>
<path fill-rule="evenodd" clip-rule="evenodd" fill="#551F1D" d="M57.193,343.583c-6.505-3.724-13.024-7.42-19.492-11.203
	c-0.712-0.418-1.342-1.261-1.644-2.05c-1.311-3.43-2.366-6.965-3.762-10.359c-0.68-1.652-0.465-2.889,0.356-4.374
	c3.201-5.782,6.286-11.631,9.413-17.457c1.093-0.979,2.187-1.958,3.281-2.937c0.934,0.528,1.868,1.058,2.926,1.656
	c-2.801,6.105-5.55,12.104-8.397,18.31c14.832-3.228,27.725-10.379,41.416-15.663c0.735,1.59,1.402,3.033,2.132,4.612
	c-7.478,3.729-14.759,7.357-22.04,10.986c0.048,0.146,0.096,0.291,0.145,0.438c7.879-1.651,15.758-3.304,23.848-4.998
	c0.421,1.789,0.798,3.396,1.176,4.996c-14.309,4.417-28.931,6.847-42.595,13.411c5.719,3.706,11.231,7.274,16.743,10.844
	l0.176,0.095l0.196-0.035l-0.036-0.02c-0.521,1.554-1.04,3.109-1.61,4.811C58.381,344.15,57.788,343.866,57.193,343.583z"/>
<path fill-rule="evenodd" clip-rule="evenodd" fill="#439144" d="M383.979,81.067c7.617,0.598,15.235,1.165,22.848,1.84
	c0.88,0.078,1.883,0.587,2.531,1.208c2.759,2.639,5.481,5.328,8.052,8.153c0.717,0.791,1.236,2.121,1.198,3.181
	c-0.227,6.479-0.64,12.95-0.995,19.424c-0.65,1.63-1.302,3.26-1.955,4.892c-1,0-1.999,0-3.324,0c0-6.896,0-13.453,0-20.357
	c-12.042,9.317-20.671,21.273-30.772,31.895c-1.34-1.125-2.566-2.157-3.901-3.277c4.916-6.274,9.737-12.434,14.561-18.593
	c-0.156-0.152-0.313-0.305-0.468-0.455c-6.182,4.678-12.364,9.357-18.628,14.099c-1.161-1.499-2.181-2.815-3.158-4.075
	c10.966-10.086,23.162-18.494,32.732-30.31c-6.186-0.784-12.042-1.526-17.896-2.269c-0.9-0.225-1.797-0.449-2.714-0.679
	c0.079-1.124,0.257-2.077,0.183-3.009C382.159,81.385,382.931,81.129,383.979,81.067z"/>
<path fill-rule="evenodd" clip-rule="evenodd" fill="#439144" d="M82.893,115.479c0.549-7.262,1.121-14.521,1.629-21.787
	c0.089-1.273,0.414-2.21,1.426-3.14c2.806-2.577,5.382-5.403,8.18-7.989c0.693-0.643,1.894-1.081,2.841-1.049
	c6.874,0.236,13.745,0.614,20.615,0.948c-0.17,1.078,0.188,1.68,1.354,1.911c0.878,0.173,1.691,0.667,2.533,1.021
	c-0.077,0.657-0.156,1.314-0.273,2.312c-6.647,0-13.213,0-20.168,0c9.418,12.036,21.403,20.636,32.099,30.708
	c-1.102,1.316-2.136,2.553-3.267,3.902c-6.135-4.75-12.175-9.429-18.215-14.108c-0.169,0.197-0.338,0.394-0.507,0.591
	c4.572,5.993,9.144,11.986,13.788,18.072c-1.453,1.158-2.758,2.196-4.032,3.211c-10.139-10.951-18.646-23.094-30.355-32.541
	c-0.128,0.745-0.236,1.267-0.307,1.792c-0.747,5.616-1.465,11.234-2.26,16.842c-0.103,0.716-0.601,1.375-0.917,2.06
	c-0.587-0.087-1.176-0.265-1.762-0.248C83.529,118.041,82.614,117.351,82.893,115.479z M110.169,108.034
	c0.347,0.166,0.567,0.271,0.786,0.376c0.05-0.161,0.183-0.357,0.132-0.471c-0.066-0.146-0.27-0.292-0.43-0.313
	C110.548,107.613,110.414,107.819,110.169,108.034z"/>
<path fill-rule="evenodd" clip-rule="evenodd" fill="#439144" d="M420.158,381.956c-0.534,7.604-1.038,15.21-1.649,22.806
	c-0.07,0.885-0.549,1.9-1.161,2.551c-2.657,2.824-5.377,5.596-8.218,8.235c-0.733,0.685-1.995,1.17-2.998,1.145
	c-6.463-0.177-12.923-0.521-19.383-0.812c-1.69-0.615-3.378-1.233-5.069-1.853c0.079-1.057,0.157-2.116,0.262-3.536
	c6.693,0,13.193,0,20.133,0c-9.435-12.083-21.5-20.567-32.169-30.59c1.12-1.35,2.147-2.584,3.253-3.915
	c6.191,4.772,12.223,9.422,18.254,14.073c0.174-0.199,0.346-0.399,0.522-0.6c-4.589-5.968-9.175-11.939-13.855-18.029
	c1.427-1.143,2.719-2.179,4.015-3.217c10.191,10.909,18.744,23.003,30.604,32.514c0.737-6.195,1.435-12.062,2.135-17.931
	c0.081-0.255,0.183-0.506,0.237-0.769c0.182-0.856-0.141-2.291,1.367-1.89C417.741,380.488,419.98,379.241,420.158,381.956z"/>
<path fill-rule="evenodd" clip-rule="evenodd" fill="#E9DA3F" d="M35.291,250.287c-3.605-5.118-7.063-10.348-10.874-15.311
	c-2.289-2.98-3.788-5.811-2.823-9.748c0.641-2.613,0.429-5.427,0.832-8.116c0.141-0.945,0.771-2.049,1.524-2.632
	c5.39-4.167,10.87-8.219,16.32-12.307c1.577-0.276,3.153-0.554,4.729-0.832c0.482,0.714,0.964,1.429,1.496,2.216
	c-5.09,4.377-10.056,8.649-15.209,13.082c14.788,3.208,29.445,2.179,44.136,3.042c0,1.121-0.104,2.079,0.022,3.004
	c0.244,1.809-0.458,2.36-2.254,2.329c-3.407-0.055-6.817,0.172-10.227,0.211c-3.967,0.044-7.935,0.009-11.901,0.009
	c-0.017,0.246-0.034,0.494-0.051,0.739c0.344,0.127,0.68,0.291,1.034,0.374c6.312,1.453,12.628,2.89,18.94,4.341
	c3.606,0.83,3.568,0.831,2.781,4.467c-0.235,1.083-0.612,1.472-1.789,1.262c-5.237-0.934-10.498-1.729-15.733-2.667
	c-8.128-1.46-16.273-2.731-24.552-2.876c-0.704-0.012-1.408-0.001-2.511-0.001c3.537,5.612,6.834,10.845,10.133,16.077
	c0.151,0.101,0.304,0.202,0.455,0.301l-0.038-0.001c0.877,2.367-1.56,2.351-2.472,3.429
	C36.383,251.718,35.896,250.683,35.291,250.287z"/>
<path fill-rule="evenodd" clip-rule="evenodd" fill="#E9DA3F" d="M251.5,465.391c-6.195,4.448-12.37,8.922-18.61,13.309
	c-0.74,0.52-1.843,0.819-2.748,0.764c-3.936-0.244-7.868-0.609-11.787-1.051c-0.785-0.088-1.763-0.51-2.224-1.106
	c-4.236-5.503-8.378-11.081-12.548-16.635c-0.003-0.687,0.094-1.394-0.035-2.057c-0.177-0.918-0.521-1.804-0.793-2.704
	c0.636-0.493,1.27-0.986,2.023-1.573c4.395,5.074,8.692,10.038,13.268,15.32c1.265-7.665,2.213-14.858,2.218-22.187
	c0.002-7.276,0.346-14.555,0.543-21.932c1.857,0,3.456,0,5.233,0c0.288,8.143,0.573,16.183,0.857,24.218
	c0.143,0.009,0.286,0.015,0.429,0.022c1.768-7.796,3.536-15.593,5.327-23.498c1.876,0.41,3.437,0.751,5.057,1.102
	c-1.851,14.746-5.8,29.019-5.405,44.135c3.369-2.123,6.441-4.007,9.456-5.979c2.163-1.412,4.251-2.939,6.372-4.417
	c0.626-0.128,1.253-0.256,1.892-0.387c0.608,0.842,1.086,1.684,1.735,2.362C252.657,464.038,252.457,464.727,251.5,465.391z"/>
<path fill-rule="evenodd" clip-rule="evenodd" fill="#2EB9DF" d="M415.657,119.764c0.653-1.631,1.305-3.261,1.955-4.892
	c7.626,2.266,15.258,4.508,22.865,6.839c0.793,0.244,1.619,0.892,2.088,1.585c2.17,3.21,4.292,6.459,6.261,9.794
	c0.52,0.879,0.805,2.21,0.561,3.173c-1.639,6.459-3.453,12.873-5.21,19.302c-0.48-0.157-0.965-0.313-1.707-0.554
	c-0.625,1.578-1.203,3.036-1.781,4.493c-2.127-0.053-2.647-1.13-2.065-3.062c0.373-1.235,0.586-2.52,0.842-3.786
	c0.897-4.438,1.785-8.877,2.779-13.816c-4.751,2.81-9.243,5.131-13.37,7.981c-6.665,4.604-13.077,9.579-19.629,14.35
	c-3.63,2.643-3.662,2.6-6.5-0.793c-0.122-0.146-0.164-0.359-0.317-0.708c1.633-1.39,3.279-2.802,4.938-4.197
	c4.373-3.68,8.754-7.351,13.129-11.026c0.094-0.089,0.187-0.179,0.281-0.269c-0.16,0.025-0.32,0.051-0.478,0.074
	c-2.427,1.069-4.872,2.103-7.279,3.21c-4.628,2.128-9.238,4.299-13.995,6.517c-0.848-1.702-1.592-3.195-2.351-4.712
	c12.838-7.513,26.525-13.163,38.351-22.727C428.35,124.207,422.004,121.985,415.657,119.764z"/>
<path fill-rule="evenodd" clip-rule="evenodd" fill="#439144" d="M116.641,418.289c-7.334-0.508-14.67-0.976-21.996-1.571
	c-0.949-0.076-2.026-0.61-2.73-1.27c-2.78-2.603-5.5-5.282-8.095-8.07c-0.688-0.738-1.217-1.982-1.19-2.977
	c0.186-6.804,0.541-13.604,0.84-20.406c1.175-0.104,1.8-0.717,2.035-1.908c0.15-0.759,0.589-1.465,0.899-2.193
	c0.654,0.073,1.309,0.149,2.34,0.267c0,6.645,0,13.197,0,20.169c12.085-9.475,20.599-21.57,30.637-32.257
	c1.381,1.167,2.604,2.199,3.865,3.264c-4.745,6.213-9.369,12.263-13.991,18.317c-0.31,0.263-0.619,0.522-0.928,0.785
	c0.066,0.103,0.133,0.205,0.199,0.306c0.383-0.196,0.765-0.391,1.146-0.587c6.042-4.609,12.085-9.221,18.189-13.877
	c0.989,1.214,1.85,2.264,2.697,3.321c0.162,0.205,0.264,0.455,0.429,0.747c-10.777,10.071-22.907,18.65-32.319,30.421
	c0.765,0.13,1.287,0.236,1.815,0.304c5.677,0.728,11.357,1.431,17.028,2.206c0.644,0.086,1.235,0.577,1.851,0.878
	c-0.185,1.307-0.369,2.612-0.554,3.918C117.961,418.16,117.301,418.225,116.641,418.289z"/>
<path fill-rule="evenodd" clip-rule="evenodd" fill="#2EB9DF" d="M381.68,414.031c1.691,0.616,3.379,1.234,5.069,1.85
	c-1.609,5.411-3.229,10.814-4.826,16.225c-0.712,2.413-1.358,4.847-2.094,7.256c-0.142,0.462-0.476,0.979-0.874,1.242
	c-3.522,2.314-7.037,4.652-10.661,6.805c-0.807,0.479-2.101,0.559-3.049,0.323c-6.402-1.585-12.772-3.308-19.153-4.983
	c0.175-0.418,0.353-0.838,0.689-1.641c-1.548-0.631-3.061-1.251-4.573-1.869c0.012-2.149,1.067-2.539,3.035-2.104
	c4.986,1.107,10.011,2.055,15.021,3.038c0.61,0.119,1.246,0.081,2.148,0.131c-6.664-13.44-16.506-24.235-24.845-36.175
	c0.986-0.772,1.907-1.365,2.671-2.116c1.055-1.039,1.787-0.824,2.65,0.251c1.747,2.183,3.571,4.303,5.389,6.425
	c2.962,3.457,5.945,6.893,8.919,10.34c0.134,0.143,0.266,0.288,0.4,0.433c-0.069-0.202-0.135-0.399-0.203-0.6
	c-3.304-7.07-6.609-14.14-9.986-21.357c1.633-0.819,3.124-1.566,4.652-2.332c7.654,12.776,13.414,26.472,23.035,38.218
	C377.355,426.737,379.518,420.385,381.68,414.031z"/>
<path fill-rule="evenodd" clip-rule="evenodd" fill="#E9DA3F" d="M465.242,247.417c4.399,6.139,8.836,12.254,13.166,18.445
	c0.593,0.847,0.953,2.084,0.897,3.112c-0.213,3.865-0.595,7.727-1.031,11.575c-0.088,0.789-0.485,1.78-1.078,2.237
	c-5.501,4.229-11.079,8.361-16.632,12.521c-1.601,0.354-3.201,0.711-4.801,1.069c-0.476-0.732-0.947-1.464-1.478-2.286
	c5.027-4.351,9.993-8.648,15.15-13.113c-14.765-3.133-29.413-2.139-44.04-2.902c0-1.782,0-3.394,0-5.209
	c8.046-0.271,16.034-0.54,24.023-0.808c0-0.169,0.004-0.34,0.004-0.511c-7.731-1.754-15.461-3.505-23.269-5.275
	c0.398-1.877,0.732-3.45,1.074-5.072c14.76,1.875,29.076,5.806,44.27,5.489c-3.47-5.357-6.727-10.385-9.984-15.413
	c-0.183-0.258-0.368-0.517-0.55-0.773l0.024,0.032c-1.089-2.29,1.229-2.45,2.17-3.473
	C464.035,246.109,464.639,246.75,465.242,247.417z"/>
<path fill-rule="evenodd" clip-rule="evenodd" fill="#2EB9DF" d="M121.471,85.394c-0.842-0.353-1.655-0.848-2.533-1.021
	c-1.166-0.231-1.524-0.833-1.354-1.911c2.132-7.327,4.229-14.666,6.443-21.968c0.272-0.9,1.024-1.824,1.81-2.368
	c3.14-2.17,6.333-4.27,9.613-6.219c0.866-0.515,2.194-0.752,3.164-0.516c6.419,1.567,12.798,3.298,19.19,4.975
	c-0.247,0.545-0.494,1.091-0.881,1.944c1.792,0.148,2.525,3.105,4.934,1.431c-0.216,0.883-0.432,1.766-0.653,2.68
	c-6.603-1.295-12.925-2.535-19.653-3.855c6.567,13.609,16.484,24.418,24.773,36.491c-1.352,1.076-2.649,2.11-4.064,3.238
	c-5.134-6.112-10.12-12.049-15.105-17.985c-0.166,0.115-0.332,0.23-0.496,0.345c3.263,6.929,6.525,13.857,9.864,20.949
	c-1,0.528-1.958,0.901-2.761,1.488c-1.557,1.137-2.338,0.523-3.116-0.972c-1.918-3.69-3.894-7.353-5.961-10.962
	c-3.723-6.501-7.485-12.98-11.323-19.413c-1.197-2.005-2.694-3.833-4.312-6.101c-2.014,5.663-3.823,10.854-5.719,16.013
	C122.854,82.955,122.098,84.15,121.471,85.394z M146.517,79.754c-0.038,0.034-0.106,0.067-0.111,0.106
	c-0.003,0.039,0.057,0.083,0.09,0.126c0.037-0.039,0.101-0.076,0.104-0.117C146.601,79.83,146.541,79.787,146.517,79.754z"/>
<path fill-rule="evenodd" clip-rule="evenodd" fill="#2EB9DF" d="M86.403,379.894c-0.31,0.729-0.749,1.435-0.899,2.193
	c-0.234,1.191-0.86,1.805-2.035,1.908c-4.426-1.355-8.847-2.728-13.28-4.057c-2.417-0.723-4.829-1.503-7.294-2.018
	c-2.235-0.47-3.665-1.659-4.796-3.604c-1.681-2.884-3.688-5.578-5.371-8.462c-0.482-0.827-0.635-2.101-0.409-3.042
	c1.545-6.43,3.23-12.826,4.872-19.233c0.596,0.286,1.189,0.57,2.235,1.066c0.57-1.701,1.089-3.257,1.61-4.811
	c0.652,0.064,1.305,0.129,2.263,0.224c-1.29,6.704-2.537,13.19-3.821,19.868c13.499-6.607,24.362-16.556,36.402-24.943
	c0.276,0.329,0.491,0.574,0.696,0.83c2.614,3.262,2.578,3.218-0.655,5.95c-4.986,4.214-9.917,8.493-14.87,12.742
	c-0.087,0.095-0.176,0.188-0.263,0.281c0.158-0.022,0.317-0.046,0.475-0.069c0.693-0.271,1.405-0.501,2.078-0.817
	c5.854-2.772,11.69-5.585,17.572-8.299c0.565-0.26,1.762-0.218,2.031,0.149c0.815,1.107,1.318,2.446,1.941,3.699
	c-12.737,7.663-26.372,13.303-37.996,22.908c0.87,0.35,1.464,0.607,2.074,0.826c4.562,1.619,9.139,3.193,13.681,4.864
	C83.947,378.527,85.152,379.271,86.403,379.894z"/>
<path fill-rule="evenodd" clip-rule="evenodd" fill="#551F1D" d="M440.688,159.505c0.578-1.457,1.156-2.915,1.781-4.493
	c0.742,0.241,1.227,0.397,1.707,0.554c5.529,3.233,10.989,6.589,16.61,9.654c3.04,1.658,5.381,3.477,6.115,7.168
	c0.58,2.912,1.923,5.67,2.854,8.52c0.17,0.522,0.188,1.27-0.065,1.727c-3.206,5.854-6.479,11.675-9.731,17.502
	c-0.638-0.063-1.274-0.122-2.105-0.202c-0.522,0.571-1.314,1.227-1.822,2.059c-0.335,0.552-0.267,1.354-0.378,2.046
	c-0.774-0.408-1.546-0.813-2.45-1.288c2.862-6.106,5.663-12.084,8.58-18.305c-14.818,3.125-27.79,10.136-41.54,15.354
	c-0.703-1.546-1.366-3.002-2.109-4.633c7.438-3.639,14.734-7.208,22.03-10.776c-0.066-0.152-0.128-0.302-0.194-0.454
	c-7.853,1.586-15.703,3.17-23.754,4.796c-0.387-1.797-0.736-3.412-1.083-5.024c14.291-4.339,28.986-6.559,42.678-13.115
	C451.895,166.763,446.291,163.135,440.688,159.505z"/>
<path fill-rule="evenodd" clip-rule="evenodd" fill="#E9DA3F" d="M253.229,38.896c-0.535,0.272-1.074,0.543-1.794,0.909
	c-0.886-1.241-1.771-2.481-2.671-3.745c0.403-0.423,0.728-0.76,1.051-1.099c6.229-4.398,12.439-8.829,18.718-13.158
	c0.776-0.534,1.938-0.79,2.895-0.731c3.734,0.23,7.46,0.664,11.191,0.967c1.375,0.112,2.338,0.618,3.188,1.803
	c3.887,5.425,7.892,10.764,11.854,16.134c0.27,1.601,0.538,3.203,0.808,4.806c-0.635,0.489-1.267,0.979-2.006,1.55
	c-4.358-5.117-8.615-10.116-13.033-15.304c-3.361,14.744-2.24,29.463-3.33,43.98c-1.785,0-3.383,0-5.117,0
	c-0.225-8.176-0.441-16.205-0.66-24.233c-0.149,0.004-0.301,0.007-0.451,0.012c-1.819,7.727-3.637,15.455-5.494,23.361
	c-1.886-0.405-3.502-0.752-5.065-1.087c1.996-14.787,6.038-29.005,5.844-44.198C263.585,32.373,258.408,35.634,253.229,38.896z"/>
<path fill-rule="evenodd" clip-rule="evenodd" fill="#BB3A2C" d="M420.158,381.956c-0.178-2.715-2.417-1.468-3.722-1.816
	c-1.508-0.401-1.186,1.033-1.367,1.89c-0.055,0.263-0.156,0.514-0.237,0.772c-0.341-1.445-0.684-2.889-1.071-4.523
	c6.588-1.645,12.997-3.246,19.655-4.91c-11.739-9.577-25.378-15.244-38.056-22.654c0.788-1.55,1.516-2.977,2.289-4.499
	c7.249,3.393,14.313,6.698,21.378,10.003c0.162-0.188,0.32-0.382,0.479-0.574c-5.895-5.065-12.028-9.863-18.018-15.046
	c1.075-1.352,2.079-2.612,3.117-3.919c12.311,8.31,23.293,18.364,37.107,24.957c-0.711-6.652-1.375-12.879-2.04-19.102
	c0.158-0.604,0.255-1.698,0.491-1.729c1.47-0.194,2.972-0.148,4.461-0.183c0.865,5.787,1.73,11.578,2.597,17.365
	c0.072,0.473,0.089,0.966,0.244,1.409c1.598,4.517,0.358,8.392-2.527,11.995c-1.146,1.425-2.194,2.989-2.957,4.642
	c-0.858,1.877-2.25,2.439-4.121,2.75C431.945,379.76,426.058,380.886,420.158,381.956z"/>
<path fill-rule="evenodd" clip-rule="evenodd" fill="#BB3A2C" d="M116.641,418.289c0.66-0.064,1.321-0.129,2.167-0.214
	c0.185-1.306,0.369-2.611,0.553-3.918c1.036-0.342,1.399,0.088,1.64,1.115c1.024,4.385,2.146,8.743,3.243,13.113
	c0.416,1.65,0.858,3.298,1.344,5.159c9.533-11.746,15.206-25.373,22.593-38.04c1.53,0.772,2.911,1.472,4.509,2.282
	c-3.498,7.471-6.956,14.854-10.414,22.24c0.142,0.108,0.286,0.213,0.428,0.322c5.182-6.239,10.365-12.476,15.599-18.775
	c1.431,1.166,2.679,2.183,3.924,3.197c-8.381,12.332-18.363,23.356-24.95,37.088c6.615-0.708,12.843-1.373,19.069-2.036
	c0.609,0.159,1.703,0.239,1.747,0.494c0.251,1.479,0.254,2.996,0.341,4.5c-2.292,0.284-4.595,0.507-6.878,0.858
	c-5.599,0.859-11.183,1.822-16.789,2.628c-0.878,0.127-1.97-0.144-2.747-0.599c-3.354-1.964-6.666-4.008-9.903-6.159
	c-0.747-0.496-1.484-1.452-1.651-2.311C119.112,432.27,117.897,425.275,116.641,418.289z"/>
<path fill-rule="evenodd" clip-rule="evenodd" fill="#BB3A2C" d="M82.893,115.479c-0.279,1.872,0.636,2.562,2.401,2.51
	c0.586-0.017,1.175,0.161,1.763,0.248c-0.314,0.52-0.522,1.35-0.965,1.503c-1.539,0.533-3.161,0.83-4.75,1.221
	c-4.478,1.101-8.955,2.203-13.736,3.378c11.689,9.576,25.279,15.311,37.979,22.767c-0.75,1.494-1.467,2.917-2.258,4.489
	c-7.232-3.386-14.312-6.702-21.393-10.018c-0.128,0.206-0.256,0.414-0.384,0.621c5.961,4.985,11.921,9.969,17.939,15.003
	c-1.196,1.468-2.215,2.72-3.204,3.935c-12.274-8.472-23.28-18.413-36.901-25.075c0.187,2.118,0.324,3.993,0.522,5.859
	c0.481,4.531,0.99,9.059,1.488,13.588c-0.348,1.726-2.754,2.475-5.104,1.59c-0.814-5.656-1.628-11.314-2.444-16.97
	c-0.078-0.54-0.083-1.109-0.269-1.61c-1.794-4.857-0.196-8.892,2.862-12.679c1.147-1.418,2.068-3.045,2.931-4.663
	c0.674-1.264,1.583-1.866,2.989-2.102C69.212,117.923,76.05,116.686,82.893,115.479z M81.023,141.625
	c0.186,0.09,0.373,0.179,0.558,0.27c-0.085-0.189-0.17-0.377-0.256-0.566c-0.201-0.023-0.402-0.046-0.603-0.071
	C80.823,141.382,80.923,141.503,81.023,141.625z"/>
<path fill-rule="evenodd" clip-rule="evenodd" fill="#BB3A2C" d="M383.979,81.067c-1.048,0.063-1.819,0.318-1.708,1.668
	c0.074,0.932-0.104,1.885-0.183,3.009c0.917,0.23,1.813,0.454,2.714,0.679c-1.45,0.32-2.895,0.639-4.533,1
	c-1.592-6.598-3.14-13.023-4.751-19.708c-9.657,11.67-15.416,25.255-22.938,37.918c-1.512-0.782-2.931-1.516-4.455-2.304
	c3.344-7.093,6.623-14.041,9.896-20.986c-0.234-0.136-0.468-0.272-0.701-0.409c-4.922,5.834-9.84,11.667-14.808,17.558
	c-1.456-1.213-2.686-2.239-3.961-3.305c4.543-6.087,8.877-12.037,13.364-17.869c4.485-5.834,8.378-12.018,11.995-18.97
	c-6.685,0.675-12.956,1.309-19.229,1.942c-1.958-0.238-2.839-2.522-1.949-5.065c2.623-0.309,5.256-0.562,7.872-0.939
	c5.457-0.789,10.901-1.662,16.361-2.442c0.58-0.083,1.315,0.07,1.817,0.38c3.414,2.107,6.832,4.213,10.134,6.487
	c0.83,0.57,1.593,1.682,1.776,2.662C381.885,68.585,382.901,74.832,383.979,81.067z"/>
<path fill-rule="evenodd" clip-rule="evenodd" fill="#989350" d="M56.292,157.099c2.35,0.885,4.756,0.136,5.105-1.588
	c0.614,1.237,1.227,2.476,1.916,3.865c-6.202,2.928-12.151,5.734-18.371,8.669c13.319,7.062,27.839,9.922,41.76,14.744
	c-0.486,1.715-0.906,3.191-1.378,4.855c-8.006-1.946-15.843-3.851-23.68-5.756c-0.063,0.165-0.126,0.329-0.191,0.495
	c7.027,3.797,14.052,7.595,21.25,11.484c-0.875,1.677-1.637,3.135-2.372,4.541c-13.774-5.905-26.508-13.417-41.126-17.197
	c1.23,4.129,2.381,7.904,3.476,11.695c0.81,2.802,1.547,5.623,2.317,8.438c-1.576,0.276-3.151,0.554-4.729,0.83
	c-2.645-7.299-5.267-14.608-7.955-21.891c-0.441-1.195-0.565-2.16-0.017-3.438c1.503-3.502,2.692-7.136,4.133-10.668
	c0.321-0.786,1.037-1.675,1.79-1.981C44.215,161.756,50.262,159.448,56.292,157.099z"/>
<path fill-rule="evenodd" clip-rule="evenodd" fill="#989350" d="M158.433,444.817c-0.086-1.504-0.09-3.021-0.341-4.5
	c-0.044-0.255-1.137-0.335-1.747-0.494c1.373-0.658,2.745-1.315,4.262-2.045c2.963,6.215,5.793,12.148,8.734,18.315
	c6.998-13.374,9.828-27.856,14.58-41.806c1.682,0.46,3.218,0.879,4.882,1.329c-1.946,8.132-3.844,16.053-5.741,23.977
	c0.144,0.052,0.287,0.108,0.43,0.163c3.836-7.154,7.672-14.31,11.553-21.545c1.718,0.919,3.126,1.672,4.491,2.398
	c-5.757,13.771-13.33,26.482-16.989,41.168c5.638-1.713,10.851-3.314,16.078-4.868c1.355-0.406,2.751-0.671,4.129-0.999
	c0.272,0.899,0.617,1.785,0.794,2.703c0.128,0.663,0.032,1.37,0.035,2.057c-3.021,1.052-6.053,2.063-9.056,3.163
	c-4.61,1.689-9.192,3.455-13.806,5.138c-0.507,0.184-1.197,0.205-1.699,0.019c-3.906-1.423-7.796-2.889-11.664-4.411
	c-0.641-0.253-1.438-0.73-1.669-1.306C163.213,457.145,160.837,450.977,158.433,444.817z"/>
<path fill-rule="evenodd" clip-rule="evenodd" fill="#B63D5C" d="M455.654,204.041c0.111-0.691,0.043-1.494,0.378-2.046
	c0.508-0.832,1.3-1.488,1.822-2.059c0.831,0.08,1.468,0.139,2.105,0.202c0.391,0.667,0.65,1.472,1.193,1.976
	c4.995,4.641,10.063,9.203,15.037,13.867c0.645,0.605,1.119,1.62,1.249,2.504c0.562,3.91,1.041,7.835,1.371,11.769
	c0.076,0.873-0.34,2.001-0.919,2.68c-4.159,4.876-8.42,9.666-12.649,14.483c-0.604-0.668-1.207-1.309-2.083-0.354
	c-0.941,1.022-3.259,1.183-2.17,3.473c-0.969-0.675-1.94-1.346-2.997-2.081c4.175-5.432,8.188-10.647,12.387-16.103
	c-15.117-0.141-29.294,3.892-43.898,6.009c-0.353-1.648-0.687-3.21-1.061-4.955c8.055-1.949,15.993-3.869,23.935-5.79
	c-0.026-0.254-0.053-0.507-0.076-0.761c-8.068,0-16.139,0-24.35,0c0-1.251,0-2.062,0-2.873c0-0.785,0-1.574,0-2.379
	c14.921-1.203,29.725-0.17,44.611-3.606C464.754,213.189,460.205,208.614,455.654,204.041z"/>
<path fill-rule="evenodd" clip-rule="evenodd" fill="#989350" d="M342.731,56.225c-0.89,2.543-0.009,4.827,1.949,5.065
	c-1.323,0.629-2.644,1.257-4.17,1.983c-2.888-6.198-5.659-12.148-8.572-18.4c-7.166,13.354-10.082,27.875-14.976,41.718
	c-1.72-0.505-3.201-0.94-4.815-1.414c1.97-8.021,3.906-15.907,5.844-23.794c-0.146-0.054-0.295-0.106-0.442-0.16
	c-3.854,7.068-7.706,14.136-11.604,21.281c-1.332-0.675-2.488-1.25-3.63-1.852c-0.287-0.151-0.527-0.394-0.834-0.627
	c5.791-13.604,13.534-26.312,17.302-40.94c-4.077,1.202-7.854,2.352-11.654,3.423c-2.871,0.811-5.772,1.521-8.66,2.276
	c-0.271-1.603-0.54-3.205-0.81-4.806c0.854-0.206,1.73-0.335,2.552-0.631c6.674-2.413,13.328-4.885,20.02-7.25
	c0.783-0.276,1.841-0.223,2.637,0.06c3.728,1.326,7.424,2.748,11.092,4.229c0.685,0.276,1.489,0.865,1.744,1.504
	C338.105,43.978,340.403,50.106,342.731,56.225z"/>
<path fill-rule="evenodd" clip-rule="evenodd" fill="#989350" d="M444.626,340.622c-1.489,0.034-2.991-0.012-4.461,0.183
	c-0.236,0.031-0.333,1.126-0.491,1.73c-0.653-1.365-1.306-2.731-2.018-4.219c6.219-2.963,12.14-5.781,18.276-8.702
	c-13.373-7.083-27.888-9.828-41.787-14.648c0.464-1.663,0.874-3.143,1.347-4.849c7.909,1.903,15.671,3.772,23.435,5.643
	c0.064-0.195,0.132-0.391,0.196-0.584c-6.978-3.749-13.955-7.5-21.022-11.297c0.896-1.719,1.635-3.138,2.344-4.503
	c13.775,5.734,26.466,13.359,41.181,17c-0.519-1.715-0.923-3.011-1.305-4.313c-1.521-5.228-3.038-10.458-4.557-15.686
	c1.6-0.358,3.2-0.715,4.801-1.069c0.765,2.315,1.475,4.656,2.313,6.945c1.898,5.184,3.904,10.326,5.752,15.525
	c0.296,0.834,0.22,1.959-0.075,2.814c-1.272,3.668-2.637,7.307-4.098,10.901c-0.317,0.782-1.045,1.647-1.798,1.958
	C456.678,335.915,450.644,338.249,444.626,340.622z"/>
<path fill-rule="evenodd" clip-rule="evenodd" fill="#B63D5C" d="M35.291,250.287c0.605,0.396,1.092,1.431,1.971,0.391
	c0.912-1.078,3.349-1.062,2.472-3.429c0.912,0.622,1.824,1.245,2.858,1.948c-4.201,5.427-8.224,10.624-12.441,16.07
	c15.152,0.223,29.382-3.889,43.936-5.853c0.358,1.759,0.668,3.268,1.009,4.937c-8.155,1.935-16.106,3.822-24.055,5.71
	c0.021,0.251,0.042,0.505,0.063,0.756c8.061,0,16.121,0,24.251,0c0,2.069,0,3.667,0,5.347c-14.738,1.131-29.541,0.028-44.283,3.432
	c0.624,0.675,1.067,1.171,1.528,1.652c3.874,4.037,7.761,8.059,11.609,12.122c0.483,0.511,0.761,1.218,1.136,1.831
	c-1.094,0.98-2.188,1.959-3.281,2.938c-5.958-5.509-11.94-10.996-17.844-16.563c-0.645-0.607-1.088-1.651-1.21-2.548
	c-0.526-3.852-0.967-7.716-1.271-11.588c-0.07-0.889,0.271-2.043,0.845-2.713C26.759,259.861,31.042,255.088,35.291,250.287z"/>
<path fill-rule="evenodd" clip-rule="evenodd" fill="#B63C5B" d="M251.5,465.391c0.957-0.664,1.157-1.353,0.262-2.293
	c-0.648-0.679-1.126-1.521-1.735-2.362c-0.639,0.131-1.265,0.259-1.892,0.387c0.772-0.939,1.544-1.884,2.412-2.942
	c5.38,4.135,10.645,8.18,15.915,12.226c0.226-0.09,0.454-0.182,0.681-0.271c-0.909-7.22-1.667-14.462-2.767-21.649
	c-1.113-7.268-2.561-14.48-3.889-21.864c1.748-0.367,3.308-0.697,5.017-1.056c1.962,8.071,3.889,15.989,5.814,23.903
	c0.239-0.026,0.479-0.055,0.716-0.083c0-8.032,0-16.062,0-24.321c1.387,0,2.391-0.013,3.395,0.005c0.598,0.01,1.194,0.06,1.88,0.1
	c1.263,14.77,0.147,29.636,3.615,44.358c0.694-0.637,1.195-1.077,1.674-1.541c4.075-3.938,8.169-7.855,12.196-11.843
	c0.757-0.75,1.375-0.972,2.248-0.384c0.654,0.587,1.309,1.176,1.964,1.763c-0.188,0.649-0.188,1.468-0.593,1.92
	c-5.242,5.826-10.532,11.615-15.854,17.373c-0.391,0.422-1.109,0.672-1.706,0.75c-3.918,0.499-7.837,1.012-11.771,1.325
	c-1.01,0.08-2.318-0.25-3.074-0.888C261.108,473.876,256.323,469.613,251.5,465.391z"/>
<path fill-rule="evenodd" clip-rule="evenodd" fill="#541E1C" d="M172.18,31.548c-0.272,0-0.546,0.013-0.818-0.002
	c-4.387-0.252-7.591-2.678-7.923-5.995c-0.358-3.583,2.629-7.478,6.656-8.39c2.36-0.535,4.813-1.119,7.19-1.001
	c2.848,0.14,5.262,1.672,6.205,4.571c0.979,3.015-0.356,5.454-2.537,7.473C178.488,30.485,175.48,31.426,172.18,31.548z"/>
<path fill-rule="evenodd" clip-rule="evenodd" fill="#429144" d="M89.583,421.215c-0.041,4.295-3.08,6.963-7.363,6.394
	c-2.507-0.333-4.696-1.324-6.255-3.432c-1.601-2.165-3.6-4.019-4.155-6.895c-0.963-4.996,2.593-8.877,7.606-8.08
	C84.729,410.051,89.635,415.847,89.583,421.215z"/>
<path fill-rule="evenodd" clip-rule="evenodd" fill="#2CB9DF" d="M38.893,374.508c0.375-3.453,0.831-6.01,3.437-7.445
	c2.617-1.442,5.128-0.923,7.522,0.608c4.317,2.759,6.799,8.316,5.839,13.04c-0.821,4.043-4.454,6.206-8.322,4.871
	c-2.595-0.896-4.722-2.413-5.86-5.042C40.547,378.319,39.582,376.096,38.893,374.508z"/>
<path fill-rule="evenodd" clip-rule="evenodd" fill="#2CB9DF" d="M127.909,38.175c2.736,0.001,5.175,0.722,6.578,3.285
	c1.477,2.696,0.792,5.261-0.828,7.681c-2.786,4.161-8.215,6.471-12.969,5.508c-3.838-0.779-6.022-4.245-4.893-7.997
	c0.79-2.621,2.255-4.809,4.879-5.976c2.317-1.029,4.65-2.026,6.977-3.036C127.739,37.818,127.824,37.996,127.909,38.175z"/>
<path fill-rule="evenodd" clip-rule="evenodd" fill="#541E1C" d="M469.408,170.201c0-0.205-0.01-0.41,0.004-0.612
	c0.247-4.528,2.695-7.723,6.128-8.003c3.548-0.288,7.457,2.808,8.293,6.816c0.505,2.43,1.009,4.955,0.859,7.398
	c-0.165,2.7-1.739,4.923-4.457,5.839c-2.931,0.989-5.316-0.258-7.359-2.312C470.698,177.14,469.38,173.625,469.408,170.201z"/>
<path fill-rule="evenodd" clip-rule="evenodd" fill="#541E1C" d="M32.351,329.589c0,0.34,0.022,0.681-0.003,1.022
	c-0.32,4.182-2.857,7.286-6.171,7.554c-3.364,0.273-7.289-2.785-8.151-6.486c-0.641-2.747-1.812-5.409-0.954-8.387
	c1.646-5.708,7.024-7.296,11.372-3.27C30.883,322.285,32.38,325.933,32.351,329.589z"/>
<path fill-rule="evenodd" clip-rule="evenodd" fill="#429144" d="M92.266,77.119c-0.137,6.13-7.134,12.063-13.212,11.203
	c-3.327-0.472-5.531-2.984-5.382-6.353c0.125-2.821,1.108-5.308,3.455-7.087c2.203-1.671,4.151-3.673,7.061-4.283
	C88.546,69.686,92.365,72.675,92.266,77.119z"/>
<path fill-rule="evenodd" clip-rule="evenodd" fill="#541E1C" d="M328.372,483.723c-5.4-0.149-8.97-3.569-8.245-7.554
	c0.224-1.222,0.804-2.487,1.549-3.49c2.998-4.041,9.547-5.758,14.235-3.87c4.695,1.889,6.035,6.637,2.646,10.382
	c-1.33,1.475-3.32,2.489-5.192,3.299C331.652,483.229,329.698,483.414,328.372,483.723z"/>
<path fill-rule="evenodd" clip-rule="evenodd" fill="#2CB9DF" d="M379.928,444.26c4.92-0.022,7.406,1.465,8.337,4.274
	c0.94,2.857-0.481,7.149-3.444,8.973c-2.335,1.438-4.929,2.661-7.569,3.337c-2.86,0.732-5.642-0.231-7.39-2.784
	c-1.731-2.536-1.257-5.229,0.319-7.694C372.715,446.401,376.423,444.436,379.928,444.26z"/>
<path fill-rule="evenodd" clip-rule="evenodd" fill="#429144" d="M429.584,83.305c0.041,5.125-3.182,7.907-7.609,7.199
	c-5.46-0.872-10.31-6.708-10.167-12.242c0.107-4.232,3.39-6.938,7.571-6.192c2.569,0.458,4.72,1.61,6.319,3.779
	C427.514,78.311,429.838,80.492,429.584,83.305z"/>
<path fill-rule="evenodd" clip-rule="evenodd" fill="#BA392B" d="M56.767,117.77c-0.116,5.027-3.907,10.091-8.651,11.553
	c-5.087,1.568-9.268-1.693-8.591-6.974c0.246-1.921,1.159-3.894,2.235-5.538c1.469-2.245,3.058-4.483,5.866-5.459
	C52.68,109.596,56.889,112.489,56.767,117.77z"/>
<path fill-rule="evenodd" clip-rule="evenodd" fill="#2CB9DF" d="M462.686,124.333c-0.082,4.002-0.83,6.434-3.351,7.855
	c-2.524,1.424-5.025,0.822-7.354-0.589c-4.392-2.665-7.061-8.929-5.782-13.405c1.219-4.269,4.825-6.075,8.913-4.359
	c2.172,0.912,4.024,2.263,4.993,4.562C461.091,120.734,462.129,123.052,462.686,124.333z"/>
<path fill-rule="evenodd" clip-rule="evenodd" fill="#BA392B" d="M444.294,379.97c0.051-4.924,3.905-10.153,8.577-11.627
	c4.93-1.554,8.857,1.353,8.772,6.5c-0.068,4.31-4.404,10.193-8.513,11.55C448.262,388.004,444.246,385.084,444.294,379.97z"/>
<path fill-rule="evenodd" clip-rule="evenodd" fill="#B63C5B" d="M5.114,273.999c-0.422-2.921,0.31-5.537,2.284-7.77
	c2.624-2.964,6.353-3.125,9.21-0.411c4.174,3.96,4.482,12.261,0.615,16.504c-2.59,2.841-6.255,3.045-9.075,0.416
	C5.626,280.388,4.661,277.429,5.114,273.999z"/>
<path fill-rule="evenodd" clip-rule="evenodd" fill="#429144" d="M423.085,409.75c4.134,0.041,6.775,2.901,6.38,7.033
	c-0.245,2.6-1.243,4.883-3.403,6.507c-2.104,1.579-3.887,3.578-6.692,4.145c-5.721,1.155-9.744-3.13-8.055-8.727
	C412.83,413.705,418.09,409.698,423.085,409.75z"/>
<path fill-rule="evenodd" clip-rule="evenodd" fill="#E9DA3D" d="M481.006,277.116c0.155-4.058,1.206-7.354,4.026-9.885
	c3.28-2.941,7.428-2.41,9.791,1.294c1.354,2.121,2,4.438,1.396,6.982c-0.437,1.847-0.6,3.802-1.318,5.527
	c-1.308,3.145-4.696,5.291-7.319,5.014c-2.95-0.313-5.264-2.632-6.173-6.279C481.165,278.788,481.1,277.762,481.006,277.116z"/>
<path fill-rule="evenodd" clip-rule="evenodd" fill="#BA392B" d="M382.159,56.901c-5.099-0.157-10.247-4.105-11.59-8.891
	c-1.338-4.765,1.547-8.716,6.485-8.386c2.041,0.136,4.213,1.033,5.968,2.148c2.432,1.546,4.802,3.315,5.719,6.398
	C390.201,53.071,387.26,57.058,382.159,56.901z"/>
<path fill-rule="evenodd" clip-rule="evenodd" fill="#BA392B" d="M119.125,444.445c5.416,0.148,10.702,4.505,11.771,9.698
	c0.766,3.727-1.355,6.882-5.102,7.46c-2.732,0.422-5.277-0.041-7.476-1.876c-2.227-1.857-4.8-3.321-5.767-6.397
	C110.981,448.348,113.904,444.303,119.125,444.445z"/>
<path fill-rule="evenodd" clip-rule="evenodd" fill="#989350" d="M16.779,169.444c0.867-3.428,2.062-7.422,5.728-9.958
	c4.8-3.319,9.993-0.863,10.579,4.959c0.448,4.46-1.229,8.208-4.519,11.135c-2.243,1.996-4.924,3.126-7.914,1.714
	C17.692,175.898,16.895,173.173,16.779,169.444z"/>
<path fill-rule="evenodd" clip-rule="evenodd" fill="#E9DA3D" d="M19.702,219.842c-0.101,4.129-0.979,7.087-3.115,9.559
	c-3.771,4.364-9.421,3.413-11.578-1.914c-1.561-3.855-0.163-10.81,2.754-13.703c3.628-3.601,8.567-2.807,10.715,1.842
	C19.201,217.195,19.46,218.979,19.702,219.842z"/>
<path fill-rule="evenodd" clip-rule="evenodd" fill="#E9DA3D" d="M221.736,481.15c3.983,0.116,7.114,1.081,9.605,3.583
	c3.609,3.622,2.84,8.681-1.842,10.701c-1.82,0.783-4.094,1.057-6.066,0.809c-2.421-0.304-4.942-1.05-7.054-2.247
	c-2.468-1.401-3.881-3.838-3.286-6.904c0.59-3.043,2.818-4.544,5.547-5.393C219.795,481.342,221.037,481.267,221.736,481.15z"/>
<path fill-rule="evenodd" clip-rule="evenodd" fill="#98924F" d="M170.7,484.186c-2.982-0.411-6.43-1.938-9.149-4.741
	c-1.949-2.009-2.833-4.573-1.769-7.358c1.078-2.819,3.48-3.951,6.305-4.128c4.867-0.303,8.806,1.607,11.643,5.536
	c1.551,2.148,2.177,4.629,0.813,7.135C177.075,483.325,174.532,484.152,170.7,484.186z"/>
<path fill-rule="evenodd" clip-rule="evenodd" fill="#E9DA3D" d="M279.652,19.449c-4.062-0.24-7.356-1.298-9.861-4.135
	c-2.937-3.331-2.278-7.634,1.559-9.887c2.092-1.229,4.345-1.971,6.816-1.197c2.362,0.74,4.914,1.161,7.023,2.356
	c2.49,1.41,3.833,3.911,3.256,6.938c-0.575,3.029-2.839,4.524-5.57,5.362C281.722,19.241,280.478,19.312,279.652,19.449z"/>
<path fill-rule="evenodd" clip-rule="evenodd" fill="#98924F" d="M484.059,328.354c-0.692,3.154-1.997,6.702-5.001,9.303
	c-2.066,1.79-4.571,2.558-7.244,1.474c-2.796-1.14-3.86-3.586-4.028-6.389c-0.246-4.113,1.245-7.656,4.232-10.455
	c2.251-2.105,4.952-3.387,8.042-2.057C483.253,321.604,484.022,324.495,484.059,328.354z"/>
<path fill-rule="evenodd" clip-rule="evenodd" fill="#98924F" d="M334.194,33.144c-4.766-0.441-8.836-2.35-11.155-6.934
	c-2.065-4.082-0.112-8.125,4.333-9.176c2.31-0.546,4.623-0.528,6.732,0.763c1.958,1.197,4.146,2.184,5.744,3.759
	c2.081,2.052,3.013,4.775,1.642,7.697C340.089,32.248,337.342,32.966,334.194,33.144z"/>
<path fill-rule="evenodd" clip-rule="evenodd" fill="#B53A5A" d="M275.472,495.468c-2.79,0.445-5.364-0.196-7.612-2.019
	c-3.183-2.584-3.417-6.527-0.569-9.485c3.953-4.115,12.332-4.367,16.511-0.5c2.739,2.536,2.947,6.127,0.416,8.918
	C281.898,494.946,278.947,495.921,275.472,495.468z"/>
<path fill-rule="evenodd" clip-rule="evenodd" fill="#B53A5A" d="M495.33,223.49c0.413,2.745-0.166,5.268-1.914,7.483
	c-2.653,3.366-6.772,3.591-9.768,0.531c-3.854-3.936-4.132-11.873-0.563-16.06c2.698-3.167,6.525-3.341,9.477-0.396
	C494.891,217.375,495.767,220.217,495.33,223.49z"/>
<path fill-rule="evenodd" clip-rule="evenodd" fill="#2EB9DF" d="M60.7,339.796c0.124,0.02,0.248,0.039,0.372,0.06l-0.196,0.035
	L60.7,339.796z"/>
<path fill-rule="evenodd" clip-rule="evenodd" fill="#FDFDFC" d="M110.169,108.034c0.245-0.215,0.379-0.42,0.487-0.407
	c0.16,0.02,0.364,0.167,0.43,0.313c0.051,0.113-0.082,0.31-0.132,0.471C110.736,108.304,110.516,108.199,110.169,108.034z"/>
<path fill-rule="evenodd" clip-rule="evenodd" fill="#B63D5C" d="M39.316,246.949c0.151,0.101,0.304,0.202,0.455,0.301
	C39.62,247.15,39.467,247.05,39.316,246.949z"/>
<path fill-rule="evenodd" clip-rule="evenodd" fill="#FDFDFC" d="M420.298,144.253c0.157-0.023,0.317-0.049,0.478-0.074
	c-0.095,0.089-0.188,0.179-0.281,0.269C420.428,144.384,420.362,144.32,420.298,144.253z"/>
<path fill-rule="evenodd" clip-rule="evenodd" fill="#FDFDFC" d="M109.671,390.157c-0.381,0.196-0.763,0.391-1.146,0.587
	c-0.065-0.101-0.133-0.203-0.199-0.306c0.309-0.263,0.619-0.522,0.928-0.785C109.394,389.82,109.533,389.988,109.671,390.157z"/>
<path fill-rule="evenodd" clip-rule="evenodd" fill="#FDFDFC" d="M357.395,418.861c0.068,0.2,0.134,0.397,0.203,0.6
	c-0.135-0.145-0.267-0.29-0.4-0.433C357.265,418.975,357.33,418.916,357.395,418.861z"/>
<path fill-rule="evenodd" clip-rule="evenodd" fill="#B63D5C" d="M461.515,251.277c-0.183-0.258-0.368-0.517-0.55-0.773
	C461.146,250.76,461.332,251.02,461.515,251.277z"/>
<path fill-rule="evenodd" clip-rule="evenodd" fill="#FDFDFC" d="M146.517,79.754c0.024,0.032,0.084,0.076,0.082,0.116
	c-0.003,0.041-0.066,0.078-0.104,0.117c-0.033-0.043-0.093-0.088-0.09-0.126C146.41,79.821,146.479,79.789,146.517,79.754z"/>
<path fill-rule="evenodd" clip-rule="evenodd" fill="#FDFDFC" d="M81.262,354.719c-0.158,0.023-0.316,0.047-0.475,0.069
	c0.087-0.094,0.176-0.187,0.263-0.281C81.122,354.578,81.192,354.647,81.262,354.719z"/>
<path fill-rule="evenodd" clip-rule="evenodd" fill="#FDFDFC" d="M81.023,141.625c-0.101-0.123-0.201-0.244-0.301-0.368
	c0.201,0.024,0.402,0.048,0.603,0.071C81.225,141.428,81.124,141.526,81.023,141.625z"/>
<path fill-rule="evenodd" clip-rule="evenodd" fill="#FDFDFC" d="M81.326,141.329c0.085,0.189,0.17,0.377,0.256,0.566
	c-0.186-0.09-0.372-0.179-0.558-0.27C81.124,141.526,81.225,141.428,81.326,141.329z"/>
<path fill-rule="evenodd" clip-rule="evenodd" fill="#A02121" d="M418.725,264.077c-4.079-0.526-8.044-1.065-12.021-1.544
	c-15.196-1.836-30.452-2.816-45.636-0.427c-8.365,1.317-16.554,3.776-24.827,5.69c-0.675,0.157-1.41,0.078-2.114,0.109
	c0.002-0.701-0.104-1.42,0.021-2.098c1.2-6.521,6.259-9.224,11.622-11.516c5.119-2.188,10.397-4.018,15.445-6.353
	c3.809-1.759,7.122-4.292,8.729-8.474c1.688-4.401,1.014-8.51-1.793-12.152c-3.244-4.21-6.841-8.15-10.088-12.357
	c-6.331-8.204-12.556-16.493-18.763-24.797c-1.094-1.469-2.053-3.144-0.68-5.051c2.004-2.789,4.123-2.839,6.739-0.054
	c6.679,7.107,13.31,14.263,20.015,21.348c1.582,1.673,3.344,3.186,5.111,4.666c0.455,0.378,1.243,0.357,1.883,0.518
	c-0.168-0.697-0.14-1.535-0.527-2.069c-4.106-5.617-8.278-11.185-12.435-16.764c-3.423-4.595-6.877-9.167-10.258-13.792
	c-1.284-1.758-2.228-3.71-0.814-5.841c1.952-2.945,4.969-3.166,7.281-0.382c3.007,3.614,5.83,7.378,8.699,11.104
	c4.533,5.886,8.947,11.873,13.639,17.63c1.074,1.316,3.076,1.876,4.652,2.786c0.227-0.221,0.456-0.439,0.687-0.661
	c-0.51-1.494-0.779-3.128-1.566-4.459c-4.925-8.332-9.965-16.596-14.962-24.883c-0.315-0.526-0.608-1.064-0.879-1.615
	c-1.122-2.301-0.703-4.245,1.146-5.368c2.134-1.296,4.188-0.978,5.748,1.143c1.738,2.36,3.31,4.842,4.93,7.287
	c4.412,6.65,8.911,13.243,13.162,19.995c1.618,2.572,3.022,5.144,6.194,6.164c0.71-2.064,0.825-4.05-0.046-6.131
	c-2.554-6.096-5.238-12.154-7.391-18.393c-0.757-2.198-0.122-4.875-0.122-7.518c3.243,0.647,5.701,1.481,7.235,4.569
	c5.549,11.166,11.611,22.083,16.934,33.352c1.933,4.094,2.573,8.87,3.37,13.408c2.294,13.023,2.89,26.163,2.107,39.362
	c-0.051,0.816-0.145,1.631-0.232,2.444C418.884,263.28,418.81,263.6,418.725,264.077z"/>
<path fill-rule="evenodd" clip-rule="evenodd" fill="#771516" d="M118.691,249.422c0.903,1.391,1.609,2.97,2.741,4.137
	c6.699,6.905,13.5,13.71,20.252,20.563c0.667,0.677,1.348,1.385,1.828,2.193c0.92,1.546,0.984,3.173-0.368,4.515
	c-1.316,1.304-2.937,2.294-4.756,1.13c-1.651-1.055-3.172-2.353-4.604-3.7c-7.653-7.196-15.217-14.486-22.927-21.621
	c-1.282-1.187-3.128-1.767-4.966-2.765c-0.336,2.449-0.194,4.262,1.069,5.989c3.982,5.442,8.058,10.831,11.715,16.489
	c1.272,1.966,1.424,4.658,2.158,7.268c-3.467,0.206-6.017,0.175-8.229-2.461c-9.156-10.911-18.492-21.673-27.802-32.455
	c-2.355-2.728-3.625-5.562-3.327-9.397c1.095-14.12,3.488-27.964,7.926-41.421c0.219-0.665,1.245-1.392,1.987-1.51
	c10.847-1.709,21.616-3.861,31.878-7.788c6.709-2.569,13.125-5.92,19.622-9.023c2.453-1.17,4.765-2.635,7.15-3.95
	c1.391-0.765,1.889-0.428,2.001,1.203c0.332,4.81-1.568,8.745-5.164,11.686c-3.412,2.79-7.17,5.156-10.786,7.698
	c-3.798,2.671-7.378,5.534-10.274,9.253c-4.207,5.402-3.071,13.216,1.655,16.965c5.179,4.109,10.613,7.896,15.762,12.042
	c7.222,5.812,14.318,11.781,21.393,17.773c2.712,2.299,2.823,4.233,0.753,6.448c-1.446,1.55-2.659,1.71-4.908,0.277
	c-4.6-2.929-9.136-5.959-13.689-8.959c-4.498-2.969-8.959-5.992-13.492-8.904c-1.305-0.84-2.777-1.439-4.22-2.032
	c-0.442-0.181-1.044,0.032-1.574,0.065c0.192,0.52,0.236,1.21,0.603,1.533c2.252,1.978,4.574,3.879,6.88,5.796
	c7.236,6.02,14.48,12.028,21.71,18.055c0.681,0.565,1.342,1.169,1.931,1.826c1.994,2.224,2.009,4.192,0.104,6.368
	c-1.684,1.928-3.572,2.135-5.964,0.281c-5.549-4.301-11.017-8.705-16.488-13.104c-3.982-3.203-7.819-6.597-11.924-9.629
	c-1.355-1.002-3.345-1.146-5.044-1.681C119.1,248.857,118.896,249.141,118.691,249.422z"/>
<path fill-rule="evenodd" clip-rule="evenodd" fill="#26B8DF" d="M331.961,240.741c0,6.615,0.284,13.244-0.068,19.84
	c-0.438,8.095-5.21,13.389-13.098,15.146c-5.156,1.149-10.333,0.864-15.366-0.668c-6.482-1.975-11.059-8.217-11.226-15.535
	c-0.24-10.507-0.293-21.02-0.299-31.532c-0.002-2.918,0.346-5.849,0.693-8.754c0.784-6.605,4.377-11.079,10.657-13.209
	c7.046-2.389,13.973-1.96,20.602,1.538c5.011,2.641,7.739,6.993,7.99,12.516c0.31,6.874,0.072,13.77,0.072,20.658
	C331.934,240.74,331.949,240.741,331.961,240.741z M315.111,240.271c0.014,0,0.024,0,0.036,0c0-6.342,0.012-12.683-0.01-19.023
	c-0.002-1.225-0.049-2.458-0.206-3.669c-0.207-1.6-1.206-2.365-2.827-2.304c-1.632,0.06-2.511,0.972-2.693,2.523
	c-0.188,1.621-0.371,3.254-0.374,4.882c-0.032,11.797-0.034,23.594-0.003,35.391c0.004,1.765,0.201,3.534,0.357,5.294
	c0.142,1.548,1.065,2.276,2.594,2.306c2.062,0.04,3.089-1.195,3.11-4.124C315.147,254.455,315.111,247.364,315.111,240.271z"/>
<path fill-rule="evenodd" clip-rule="evenodd" fill="#26B8DF" d="M245.914,240.709c0,6.614,0.288,13.245-0.072,19.841
	c-0.445,8.111-5.196,13.398-13.072,15.162c-5.292,1.185-10.598,0.89-15.753-0.763c-6.225-1.995-10.694-8.209-10.862-15.394
	c-0.247-10.506-0.304-21.02-0.299-31.53c0.002-3.123,0.322-6.269,0.775-9.362c1.125-7.68,6.052-11.829,13.283-13.434
	c6.181-1.374,12.21-0.716,17.869,2.313c4.994,2.67,7.677,6.986,8.03,12.509c0.438,6.87,0.466,13.767,0.67,20.652
	C246.295,240.706,246.104,240.707,245.914,240.709z M229.061,240.277c0.008,0,0.017,0,0.024,0c0-6.546,0.008-13.093-0.007-19.638
	c-0.002-1.019-0.051-2.047-0.19-3.054c-0.225-1.599-1.205-2.369-2.827-2.31c-1.629,0.06-2.515,0.963-2.696,2.518
	c-0.19,1.621-0.372,3.255-0.376,4.883c-0.032,11.795-0.034,23.592-0.004,35.389c0.005,1.766,0.198,3.534,0.357,5.295
	c0.14,1.542,1.058,2.279,2.588,2.31c2.068,0.043,3.091-1.182,3.114-4.119C229.097,254.46,229.061,247.368,229.061,240.277z"/>
<path fill-rule="evenodd" clip-rule="evenodd" fill="#8DC644" d="M157.522,195.486c0-19.421,0-38.645,0-57.979
	c0.694-0.032,1.292-0.086,1.888-0.086c8.601-0.006,17.203-0.105,25.801,0.053c2.896,0.052,5.91,0.363,8.65,1.24
	c9.987,3.194,13.317,16.333,5.865,22.873c-1.653,1.453-3.764,2.383-5.718,3.587c0.342,0.137,0.787,0.332,1.245,0.491
	c5.959,2.084,9.847,7.153,10.043,13.097c0.212,6.44-3.269,12.485-9.087,14.69c-3.128,1.186-6.592,1.938-9.928,2.039
	c-9.275,0.275-18.563,0.106-27.846,0.108C158.174,195.599,157.911,195.537,157.522,195.486z M171.016,185.003
	c4.868,0,9.588,0.311,14.244-0.096c3.898-0.34,5.832-3.016,5.934-6.858c0.093-3.473-2.166-6.669-5.847-6.997
	c-4.71-0.419-9.484-0.101-14.332-0.101C171.016,175.581,171.016,180.333,171.016,185.003z M171.082,147.748
	c0,4.323,0,8.434,0,12.267c4.719,0,9.295,0.28,13.817-0.093c3.347-0.273,5.044-3.06,4.85-6.653
	c-0.163-3.006-2.315-5.347-5.515-5.477C179.891,147.615,175.536,147.748,171.082,147.748z"/>
<path fill-rule="evenodd" clip-rule="evenodd" fill="#26B8DF" d="M265.122,229.529c-5.16,0-10.049,0-15.237,0
	c0.106-5.753-0.671-11.497,2.39-16.76c2.199-3.783,5.386-6.266,9.641-7.363c4.875-1.259,9.75-1.088,14.549,0.25
	c8.982,2.507,13.902,11.044,12.318,20.574c-1.258,7.571-5.163,13.863-9.092,20.168c-3.457,5.546-7.062,11.001-10.752,16.731
	c6.216,0,12.238,0,18.436,0c0,4.038,0,7.873,0,11.841c-12.426,0-24.812,0-37.515,0c0.354-4.684-0.65-9.22,2.255-13.74
	c5.822-9.056,11.131-18.452,16.386-27.854c1.808-3.234,3.023-6.847,4.126-10.403c0.472-1.519,0.139-3.375-0.151-5.019
	c-0.326-1.847-1.686-2.722-3.578-2.676c-1.86,0.045-3.001,1.16-3.264,2.829c-0.355,2.274-0.391,4.604-0.499,6.913
	C265.067,226.444,265.122,227.873,265.122,229.529z"/>
<path fill-rule="evenodd" clip-rule="evenodd" fill="#26B8DF" d="M182.791,263.259c6.421,0,12.418,0,18.563,0
	c0,3.954,0,7.796,0,11.729c-12.504,0-24.894,0-37.496,0c0.172-4.914-0.526-9.54,2.452-14.178
	c6.107-9.518,11.572-19.452,17.139-29.309c1.94-3.433,3.502-7.116,3.388-11.223c-0.023-0.872-0.189-1.767-0.458-2.598
	c-0.522-1.607-1.694-2.397-3.404-2.41c-1.759-0.011-2.957,0.9-3.287,2.509c-0.395,1.919-0.498,3.907-0.594,5.871
	c-0.094,1.895-0.021,3.798-0.021,5.829c-5.11,0-10.049,0-15.256,0c0.107-4.876-0.499-9.735,1.316-14.364
	c1.994-5.08,5.592-8.453,11-9.768c4.892-1.188,9.755-1.016,14.54,0.396c8.867,2.615,13.64,11.096,12.047,20.556
	c-1.263,7.5-5.119,13.736-9.006,19.986c-3.169,5.097-6.511,10.085-9.774,15.124C183.617,261.909,183.311,262.419,182.791,263.259z"
	/>
<path fill-rule="evenodd" clip-rule="evenodd" fill="#8EC645" d="M245.905,137.513c3.941,0,7.674,0,11.542,0
	c0.047,0.528,0.135,1.056,0.133,1.581c-0.061,13.038-0.025,26.078-0.235,39.114c-0.172,10.44-5.11,16.15-16.751,18.165
	c-5.149,0.892-10.35,0.725-15.433-0.615c-8.544-2.255-13.355-8.055-13.609-17.654c-0.353-13.371-0.117-26.759-0.125-40.138
	c0-0.119,0.096-0.236,0.189-0.45c4.716,0,9.468,0,14.491,0c0,0.756,0,1.481,0,2.207c0,11.128-0.003,22.255,0.003,33.384
	c0.001,1.434,0.025,2.869,0.099,4.299c0.255,4.896,2.613,7.579,7.417,8.237c1.536,0.209,3.158,0.196,4.692-0.034
	c5.242-0.786,7.483-3.4,7.521-8.943c0.081-12.153,0.051-24.305,0.067-36.458C245.906,139.391,245.905,138.574,245.905,137.513z"/>
<path fill-rule="evenodd" clip-rule="evenodd" fill="#8EC645" d="M273.031,178.015c2.805,7.333,8.971,10.317,16.31,8.016
	c2.188-0.685,3.883-1.987,4.633-4.253c0.849-2.554-0.13-5.093-2.813-6.249c-2.739-1.176-5.667-1.897-8.49-2.882
	c-3.273-1.143-6.652-2.089-9.755-3.589c-10.093-4.878-12.47-17.667-5.006-26.12c5.313-6.014,12.265-7.214,19.762-6.602
	c5.427,0.442,10.425,2.049,14.317,6.148c1.999,2.104,3.419,4.539,4.364,7.434c-3.824,1.292-7.484,2.53-11.21,3.79
	c-0.206-0.288-0.41-0.477-0.495-0.707c-2.455-6.677-8.751-7.458-14.026-5.98c-2.059,0.579-3.415,1.915-3.635,4.188
	c-0.238,2.454,0.662,4.426,2.901,5.351c2.565,1.061,5.291,1.735,7.952,2.558c2.538,0.782,5.109,1.457,7.616,2.323
	c7.824,2.7,12.232,8.252,12.541,15.66c0.298,7.219-4.31,14.553-11.401,17.413c-8.041,3.241-16.256,3.276-24.33,0.043
	c-6.106-2.445-9.9-7.049-11.61-13.703C264.752,179.914,268.835,178.977,273.031,178.015z"/>
<path fill-rule="evenodd" clip-rule="evenodd" fill="#8DC644" d="M305.538,137.422c5.146,0,10.032-0.042,14.921,0.064
	c0.482,0.011,1.094,0.858,1.395,1.448c2.972,5.826,5.889,11.681,8.824,17.525c0.449,0.897,0.918,1.785,1.526,2.965
	c0.931-1.83,1.742-3.387,2.524-4.959c2.584-5.184,5.205-10.352,7.714-15.574c0.561-1.173,1.224-1.539,2.485-1.505
	c3.341,0.089,6.687,0.031,10.377,0.031c-0.415,0.806-0.728,1.437-1.061,2.054c-5.408,10.018-10.837,20.025-16.193,30.07
	c-0.515,0.967-0.805,2.174-0.813,3.272c-0.07,7.502-0.037,15.004-0.037,22.65c-4.515,0-8.907,0-13.45,0
	c-0.028-0.669-0.082-1.331-0.085-1.989c-0.008-6.692,0.051-13.387-0.05-20.077c-0.02-1.359-0.357-2.851-0.993-4.046
	c-5.279-9.934-10.658-19.812-16.002-29.709C306.276,139.004,305.983,138.338,305.538,137.422z"/>
<path fill-rule="evenodd" clip-rule="evenodd" fill="#BA382B" d="M336.777,285.841c3.053,0,5.749,0,8.538,0
	c0,9.801,0,19.512,0,29.321c-2.64,0-5.197,0-7.898,0c-0.049-0.756-0.095-1.467-0.162-2.489c-2.457,3.043-5.439,3.714-8.717,2.466
	c-3.313-1.262-5.01-4.043-5.232-7.425c-0.193-2.935-0.243-6.027,0.464-8.848c1.563-6.214,8.343-8.141,13.008-4.065
	C336.777,291.762,336.777,288.9,336.777,285.841z M336.817,304.04c0.008,0,0.016,0,0.023,0c0-1.227,0.25-2.527-0.079-3.655
	c-0.255-0.87-1.174-2.026-1.926-2.131c-0.757-0.106-2.155,0.749-2.434,1.494c-1.01,2.721-1.234,5.627-0.182,8.385
	c0.3,0.788,1.627,1.788,2.303,1.671c0.86-0.152,1.892-1.221,2.203-2.117C337.104,306.594,336.817,305.267,336.817,304.04z"/>
<path fill-rule="evenodd" clip-rule="evenodd" fill="#BA372A" d="M255.446,315.162c-2.883,0-5.579,0-8.362,0
	c0-9.76,0-19.429,0-29.254c2.707,0,5.447,0,8.397,0c0,3.187,0,6.343,0,9.918c2.352-2.487,4.858-3.318,7.831-2.771
	c3.007,0.555,5.037,2.686,5.076,5.741c0.073,5.388,0.021,10.777,0.021,16.313c-2.772,0-5.524,0-8.515,0
	c0-2.835,0.01-5.68-0.004-8.525c-0.008-1.908-0.039-3.815-0.076-5.727c-0.024-1.161-0.483-2.217-1.769-1.916
	c-0.886,0.206-1.819,0.958-2.349,1.728c-0.398,0.584-0.24,1.584-0.244,2.399C255.436,307.021,255.446,310.978,255.446,315.162z"/>
<path fill-rule="evenodd" clip-rule="evenodd" fill="#BA382B" d="M272.253,299.665c0.789-3.301,2.861-5.155,5.767-6.028
	c3.736-1.125,7.565-1.084,11.295,0c2.658,0.772,4.57,2.475,4.684,5.5c0.119,3.202,0.166,6.406,0.213,9.609
	c0.032,2.096,0.008,4.193,0.008,6.404c-2.165,0-4.73,0-7.483,0c-0.144-0.784-0.3-1.618-0.494-2.656
	c-2.667,3.011-5.934,3.725-9.65,2.843c-2.668-0.633-4.338-2.323-4.864-4.929c-0.549-2.698,0.252-5.289,2.716-6.524
	c2.493-1.25,5.34-1.813,8.063-2.562c1.089-0.301,2.265-0.293,3.822-0.967c-0.67-0.753-1.216-1.938-2.031-2.165
	c-1.92-0.543-3.667-0.004-4.473,2.188C277.345,300.146,274.911,299.915,272.253,299.665z M285.786,304.689
	c-1.571,0.625-3.18,0.98-4.4,1.87c-0.63,0.459-0.962,1.999-0.691,2.8c0.193,0.573,1.64,1.063,2.49,1.006
	C285.44,310.215,286.188,308.593,285.786,304.689z"/>
<path fill-rule="evenodd" clip-rule="evenodd" fill="#B63D5C" d="M228.71,313.743c-3.656-3.213-3.364-5.471,0.512-8.191
	c-0.854-1.858-2.074-3.549-2.382-5.391c-0.628-3.778,2.25-6.707,6.485-7.037c1.019-0.08,2.056-0.097,3.066,0.015
	c1.005,0.108,1.988,0.416,2.983,0.638c1.59-4.035,2.229-4.462,5.882-3.813c0,1.094,0,2.22,0,3.498
	c-0.602,0.079-1.299,0.029-1.875,0.271c-1.02,0.429-2.131,0.981-1.221,2.408c1.493,2.344,1.715,4.793,0.229,7.129
	c-1.677,2.638-4.421,3.223-7.34,3.187c-0.679-0.011-1.452-0.378-2.011-0.155c-0.708,0.28-1.244,0.996-1.854,1.523
	c0.505,0.434,0.962,1.163,1.522,1.251c2.351,0.369,4.74,0.495,7.103,0.809c2.952,0.392,4.532,1.744,5.118,4.222
	c0.64,2.691-0.316,5.754-2.614,7.005c-4.721,2.563-9.745,2.65-14.552,0.461C224.299,319.992,224.85,315.943,228.71,313.743z
	 M234.632,314.389c-0.003,0.026-0.005,0.055-0.011,0.078c-0.675-0.028-1.494-0.313-1.995-0.031c-0.803,0.449-1.68,1.172-1.973,1.979
	c-0.19,0.52,0.432,1.794,0.997,2.047c2.227,0.991,4.628,1.125,6.886,0.123c0.595-0.264,1.144-1.354,1.123-2.046
	c-0.018-0.579-0.804-1.421-1.423-1.625C237.101,314.536,235.839,314.544,234.632,314.389z M232.985,299.696
	c0.048,0.503-0.078,1.16,0.189,1.554c0.515,0.758,1.251,1.367,1.896,2.037c0.629-0.663,1.611-1.237,1.805-2.01
	c0.28-1.121,0.172-2.433-0.132-3.568c-0.155-0.578-1.145-1.375-1.665-1.311c-0.673,0.082-1.384,0.832-1.83,1.471
	C232.941,298.31,233.061,299.048,232.985,299.696z"/>
<path fill-rule="evenodd" clip-rule="evenodd" fill="#BA372A" d="M319.299,315.19c-2.668,0-5.374,0-8.304,0
	c0-4.199,0.002-8.335,0-12.47c0-0.682,0.182-1.447-0.068-2.024c-0.305-0.709-1-1.782-1.484-1.759
	c-0.833,0.039-1.953,0.613-2.364,1.309c-0.472,0.799-0.39,1.975-0.399,2.989c-0.035,3.939-0.013,7.881-0.013,11.923
	c-2.854,0-5.55,0-8.348,0c0-7.196,0-14.328,0-21.618c2.53,0,5.065,0,7.748,0c0,0.739,0,1.457,0,2.694
	c2.363-3.298,5.326-3.703,8.567-3.117c2.671,0.486,4.531,2.23,4.613,4.952C319.414,303.709,319.299,309.354,319.299,315.19z"/>
<path fill-rule="evenodd" clip-rule="evenodd" fill="#BA392B" d="M368.664,298.543c-1.998,0.394-3.903,0.801-5.825,1.112
	c-0.293,0.047-0.721-0.29-0.987-0.553c-1.373-1.349-3.028-1.471-4.746-1.046c-0.513,0.127-0.921,0.661-1.376,1.008
	c0.427,0.375,0.805,0.983,1.289,1.081c2.195,0.45,4.429,0.7,6.628,1.125c3.527,0.68,5.76,2.863,6.007,5.742
	c0.301,3.533-1.248,6.086-4.727,7.49c-3.941,1.59-7.986,1.631-11.989,0.296c-2.671-0.89-4.487-2.756-5.433-5.686
	c1.909-0.284,3.762-0.593,5.625-0.812c0.4-0.048,1.024,0.097,1.236,0.384c1.692,2.279,4.058,1.882,6.341,1.596
	c0.527-0.066,0.979-0.729,1.468-1.116c-0.499-0.396-0.948-1.014-1.508-1.142c-1.92-0.437-3.9-0.612-5.817-1.052
	c-4.328-0.99-6.321-3.1-6.346-6.55c-0.025-3.439,2.164-6.015,6.211-7.053c3.235-0.831,6.489-0.749,9.614,0.552
	C366.351,294.763,367.83,296.199,368.664,298.543z"/>
<path fill-rule="evenodd" clip-rule="evenodd" fill="#B53A5A" d="M175.403,293.573c1.806,0,3.486,0,5.266,0
	c0.046,0.866,0.088,1.652,0.126,2.339c1.197-0.842,2.277-2.034,3.585-2.394c1.245-0.34,2.878-0.138,4.079,0.406
	c2.594,1.175,3.751,3.662,3.896,6.312c0.172,3.163,0.255,6.456-0.42,9.517c-1.206,5.469-5.46,7.061-10.772,4.319
	c0,2.838,0,5.589,0,8.45c-1.988,0-3.797,0-5.76,0C175.403,312.932,175.403,303.354,175.403,293.573z M181.014,304.341
	c0.074,0.002,0.148,0.005,0.222,0.008c0,1.563-0.079,3.13,0.024,4.684c0.089,1.357,0.798,2.327,2.303,2.339
	c1.433,0.012,2.433-0.765,2.481-2.165c0.114-3.303,0.165-6.619-0.052-9.911c-0.049-0.744-1.195-1.807-2.018-2.02
	c-1.357-0.349-2.345,0.626-2.543,2.009C181.189,300.956,181.144,302.654,181.014,304.341z"/>
<path fill-rule="evenodd" clip-rule="evenodd" fill="#B53A5A" d="M141.008,315.207c-1.808,0-3.642,0-5.784,0
	c0-1.141,0.001-2.268,0-3.395c-0.006-3.892-0.001-7.781-0.029-11.671c-0.01-1.243-0.308-2.376-1.849-2.454
	c-1.474-0.074-2.592,0.513-2.74,2.107c-0.162,1.758-0.205,3.533-0.221,5.301c-0.034,3.324-0.01,6.648-0.01,10.066
	c-2.013,0-3.826,0-5.788,0c0-9.748,0-19.459,0-29.292c1.87,0,3.737,0,5.719,0c0,3.138,0,6.19,0,8.833
	c2.014-0.547,3.982-1.392,6.007-1.556c2.646-0.211,4.571,1.482,4.643,4.104C141.119,303.165,141.008,309.084,141.008,315.207z"/>
<path fill-rule="evenodd" clip-rule="evenodd" fill="#B53A5A" d="M222.979,315.173c-1.812,0-3.692,0-5.802,0
	c0-3.312,0.003-6.563-0.001-9.811c-0.003-1.843,0.008-3.684-0.039-5.524c-0.031-1.243-0.604-2.099-1.955-2.154
	c-1.304-0.055-2.295,0.43-2.503,1.846c-0.167,1.142-0.322,2.298-0.334,3.448c-0.04,4.012-0.015,8.023-0.015,12.158
	c-2.007,0-3.875,0-5.829,0c0-7.202,0-14.321,0-21.544c1.845,0,3.586,0,5.436,0c0.083,0.636,0.161,1.223,0.31,2.343
	c1.661-2.473,3.815-3.09,6.305-2.832c2.498,0.257,4.316,1.765,4.38,4.276C223.08,303.228,222.979,309.083,222.979,315.173z"/>
<path fill-rule="evenodd" clip-rule="evenodd" fill="#B63D5C" d="M162.064,305.394c-4.005,0-7.658,0-11.276,0
	c-0.497,3.597,0.259,5.638,2.15,6.073c1.757,0.405,2.917-0.645,3.911-3.651c1.578,0.086,3.198,0.175,4.803,0.263
	c0.193,3.954-3.059,7.283-7.277,7.585c-5.071,0.364-8.703-2.142-9.57-7.156c-0.456-2.625-0.433-5.46,0.02-8.089
	c0.834-4.854,4.191-7.416,8.837-7.338c4.264,0.07,7.005,2.614,7.948,7.52C161.888,302.053,161.899,303.559,162.064,305.394z
	 M150.719,301.702c1.955,0,3.749,0,5.533,0c0.131-3.095-0.828-4.716-2.718-4.745C151.717,296.928,150.808,298.42,150.719,301.702z"
	/>
<path fill-rule="evenodd" clip-rule="evenodd" fill="#B43959" d="M171.193,315.162c-1.931,0-3.744,0-5.665,0
	c0-9.797,0-19.502,0-29.308c1.895,0,3.708,0,5.665,0C171.193,295.57,171.193,305.277,171.193,315.162z"/>
<path fill-rule="evenodd" clip-rule="evenodd" fill="#B43959" d="M201.937,315.152c-1.964,0-3.779,0-5.688,0
	c0-7.174,0-14.244,0-21.491c1.835,0,3.694,0,5.688,0C201.937,300.755,201.937,307.876,201.937,315.152z"/>
<path fill-rule="evenodd" clip-rule="evenodd" fill="#B63D5C" d="M196.122,285.799c1.968,0,3.841,0,5.85,0c0,1.84,0,3.644,0,5.605
	c-1.894,0-3.818,0-5.85,0C196.122,289.53,196.122,287.724,196.122,285.799z"/>
<text transform="matrix(1 0 0 1 121.229 346.0391)" fill="#3B180E" font-family="'MyriadPro-Regular'" font-size="23.3095" letter-spacing="1">FOUNDATION LIMITED</text>
</svg>
